<?xml version="1.0" encoding="utf-8"?>
<!-- Generator: Adobe Illustrator 22.1.0, SVG Export Plug-In . SVG Version: 6.00 Build 0)  -->
<svg version="1.1" id="Layer_1" xmlns="http://www.w3.org/2000/svg" xmlns:xlink="http://www.w3.org/1999/xlink" x="0px" y="0px"
	 viewBox="0 0 30 30" style="enable-background:new 0 0 30 30;" xml:space="preserve">
<style type="text/css">
	.st0{fill:url(#SVGID_1_);}
	.st1{fill:url(#SVGID_2_);}
	.st2{fill-rule:evenodd;clip-rule:evenodd;fill:url(#SVGID_3_);}
</style>
<linearGradient id="SVGID_1_" gradientUnits="userSpaceOnUse" x1="17.5257" y1="17.428" x2="21.9742" y2="17.428">
	<stop  offset="0" style="stop-color:#3DDEED"/>
	<stop  offset="0.9616" style="stop-color:#3DDEED;stop-opacity:3.841555e-02"/>
	<stop  offset="1" style="stop-color:#3DDEED;stop-opacity:0"/>
</linearGradient>
<path class="st0" d="M20.9,15.9c1,1.2,1.3,2.6,0.8,4.6c-1.1-0.8-3.1-2.6-4.2-3.3c0-1,0.1-1.7,0.1-2.7C18.9,14.1,20.1,15,20.9,15.9z"
	/>
<linearGradient id="SVGID_2_" gradientUnits="userSpaceOnUse" x1="5.6757" y1="17.3212" x2="10.1241" y2="17.3212">
	<stop  offset="0.6051" style="stop-color:#3DDEED"/>
	<stop  offset="1" style="stop-color:#3DDEED;stop-opacity:0"/>
</linearGradient>
<path class="st1" d="M6.8,15.8c-1,1.2-1.4,2.6-0.8,4.6c1.1-0.8,3.1-2.5,4.2-3.3c0-1-0.1-1.7-0.1-2.7C8.8,14,7.5,14.9,6.8,15.8z"/>
<linearGradient id="SVGID_3_" gradientUnits="userSpaceOnUse" x1="10.566" y1="14.6699" x2="19.1344" y2="14.6699">
	<stop  offset="0" style="stop-color:#3DDEED"/>
	<stop  offset="1" style="stop-color:#3DDEED;stop-opacity:0"/>
</linearGradient>
<path class="st2" d="M13.8,17.4c-1.2,0-2.2,0-3.4,0c-0.3,0.5-1.5,4-0.5,5.9c0.2,0.4,0.5,0.8,1.1,1.3c0.3-2.6,0.6-3.9,1-3.9
	c0.5,0,1.1,2.8,1.8,8.4c0.7-5.6,1.3-8.4,1.8-8.4c0.4,0,0.7,1.3,1,3.9c0.5-0.5,0.9-0.9,1.1-1.3c1-1.9-0.2-5.4-0.5-5.9
	C16.1,17.4,15,17.5,13.8,17.4 M13.8,17c1.3,0,2.4,0,3.5,0c0.1-1.9,0.2-3.9,0.2-5.4c0.1-5.9-0.5-7.3-0.9-8.2c-0.8-1.6-2-2.7-2.8-3.3
	c-0.8,0.6-1.9,1.6-2.8,3.3c-0.4,0.9-1,2.3-0.9,8.2c0,1.5,0.1,3.5,0.2,5.4C11.4,17,12.6,17,13.8,17 M13.8,6.8c-1,0-1.8,0.8-1.8,1.8
	s0.8,1.8,1.8,1.8s1.8-0.8,1.8-1.8S14.8,6.8,13.8,6.8z M13.8,11c-1,0-1.8,0.8-1.8,1.8s0.8,1.8,1.8,1.8s1.8-0.8,1.8-1.8
	S14.8,11,13.8,11z"/>
</svg>
